<mxfile host="app.diagrams.net" agent="Mozilla/5.0 (Windows NT 10.0; Win64; x64) AppleWebKit/537.36 (KHTML, like Gecko) Chrome/133.0.0.0 Safari/537.36" version="26.0.16">
  <diagram name="Page-1" id="4VVql4NJEjDess6YOJ2p">
    <mxGraphModel dx="2474" dy="1051" grid="1" gridSize="10" guides="1" tooltips="1" connect="1" arrows="1" fold="1" page="1" pageScale="1" pageWidth="2339" pageHeight="3300" math="0" shadow="0">
      <root>
        <mxCell id="0" />
        <mxCell id="1" parent="0" />
        <mxCell id="0c3aztLqtbgiPArKMDzQ-1" value="VPC" style="points=[[0,0],[0.25,0],[0.5,0],[0.75,0],[1,0],[1,0.25],[1,0.5],[1,0.75],[1,1],[0.75,1],[0.5,1],[0.25,1],[0,1],[0,0.75],[0,0.5],[0,0.25]];outlineConnect=0;gradientColor=none;html=1;whiteSpace=wrap;fontSize=12;fontStyle=0;container=1;pointerEvents=0;collapsible=0;recursiveResize=0;shape=mxgraph.aws4.group;grIcon=mxgraph.aws4.group_vpc2;strokeColor=#8C4FFF;fillColor=none;verticalAlign=top;align=left;spacingLeft=30;fontColor=#AAB7B8;dashed=0;" parent="1" vertex="1">
          <mxGeometry x="900" y="1100" width="908" height="870" as="geometry" />
        </mxCell>
        <mxCell id="0c3aztLqtbgiPArKMDzQ-11" value="Availability zone" style="sketch=0;outlineConnect=0;gradientColor=none;html=1;whiteSpace=wrap;fontSize=12;fontStyle=0;shape=mxgraph.aws4.group;grIcon=mxgraph.aws4.group_availability_zone;strokeColor=#545B64;fillColor=none;verticalAlign=top;align=left;spacingLeft=30;fontColor=#545B64;dashed=1;" parent="0c3aztLqtbgiPArKMDzQ-1" vertex="1">
          <mxGeometry x="520" y="198" width="280" height="640" as="geometry" />
        </mxCell>
        <mxCell id="0c3aztLqtbgiPArKMDzQ-8" value="Availability zone" style="sketch=0;outlineConnect=0;gradientColor=none;html=1;whiteSpace=wrap;fontSize=12;fontStyle=0;shape=mxgraph.aws4.group;grIcon=mxgraph.aws4.group_availability_zone;strokeColor=#545B64;fillColor=none;verticalAlign=top;align=left;spacingLeft=30;fontColor=#545B64;dashed=1;" parent="0c3aztLqtbgiPArKMDzQ-1" vertex="1">
          <mxGeometry x="80" y="198" width="280" height="640" as="geometry" />
        </mxCell>
        <mxCell id="0c3aztLqtbgiPArKMDzQ-4" value="" style="outlineConnect=0;dashed=0;verticalLabelPosition=bottom;verticalAlign=top;align=center;html=1;shape=mxgraph.aws3.application_load_balancer;fillColor=#F58534;gradientColor=none;" parent="0c3aztLqtbgiPArKMDzQ-1" vertex="1">
          <mxGeometry x="403" y="98" width="69" height="72" as="geometry" />
        </mxCell>
        <mxCell id="Z-mBgopIyZPXFNN8kN6b-3" style="edgeStyle=orthogonalEdgeStyle;rounded=0;orthogonalLoop=1;jettySize=auto;html=1;" edge="1" parent="0c3aztLqtbgiPArKMDzQ-1" source="0c3aztLqtbgiPArKMDzQ-6" target="Z-mBgopIyZPXFNN8kN6b-1">
          <mxGeometry relative="1" as="geometry" />
        </mxCell>
        <mxCell id="0c3aztLqtbgiPArKMDzQ-6" value="Subnet" style="sketch=0;outlineConnect=0;gradientColor=none;html=1;whiteSpace=wrap;fontSize=12;fontStyle=0;shape=mxgraph.aws4.group;grIcon=mxgraph.aws4.group_subnet;strokeColor=#879196;fillColor=none;verticalAlign=top;align=left;spacingLeft=30;fontColor=#879196;dashed=0;" parent="0c3aztLqtbgiPArKMDzQ-1" vertex="1">
          <mxGeometry x="95" y="228" width="685" height="130" as="geometry" />
        </mxCell>
        <mxCell id="0c3aztLqtbgiPArKMDzQ-9" value="Subnet" style="sketch=0;outlineConnect=0;gradientColor=none;html=1;whiteSpace=wrap;fontSize=12;fontStyle=0;shape=mxgraph.aws4.group;grIcon=mxgraph.aws4.group_subnet;strokeColor=#879196;fillColor=none;verticalAlign=top;align=left;spacingLeft=30;fontColor=#879196;dashed=0;" parent="0c3aztLqtbgiPArKMDzQ-1" vertex="1">
          <mxGeometry x="95" y="418" width="685" height="130" as="geometry" />
        </mxCell>
        <mxCell id="0c3aztLqtbgiPArKMDzQ-10" value="Subnet" style="sketch=0;outlineConnect=0;gradientColor=none;html=1;whiteSpace=wrap;fontSize=12;fontStyle=0;shape=mxgraph.aws4.group;grIcon=mxgraph.aws4.group_subnet;strokeColor=#879196;fillColor=none;verticalAlign=top;align=left;spacingLeft=30;fontColor=#879196;dashed=0;" parent="0c3aztLqtbgiPArKMDzQ-1" vertex="1">
          <mxGeometry x="95" y="628" width="685" height="130" as="geometry" />
        </mxCell>
        <mxCell id="0c3aztLqtbgiPArKMDzQ-67" style="edgeStyle=orthogonalEdgeStyle;rounded=0;orthogonalLoop=1;jettySize=auto;html=1;exitX=0;exitY=0.5;exitDx=0;exitDy=0;exitPerimeter=0;strokeColor=light-dark(#000000,#CC0000);" parent="0c3aztLqtbgiPArKMDzQ-1" source="0c3aztLqtbgiPArKMDzQ-15" edge="1">
          <mxGeometry relative="1" as="geometry">
            <mxPoint y="190" as="targetPoint" />
            <Array as="points">
              <mxPoint x="181" y="290" />
              <mxPoint x="60" y="290" />
              <mxPoint x="60" y="190" />
            </Array>
          </mxGeometry>
        </mxCell>
        <mxCell id="0c3aztLqtbgiPArKMDzQ-15" value="" style="sketch=0;points=[[0,0,0],[0.25,0,0],[0.5,0,0],[0.75,0,0],[1,0,0],[0,1,0],[0.25,1,0],[0.5,1,0],[0.75,1,0],[1,1,0],[0,0.25,0],[0,0.5,0],[0,0.75,0],[1,0.25,0],[1,0.5,0],[1,0.75,0]];outlineConnect=0;fontColor=#232F3E;fillColor=#ED7100;strokeColor=#ffffff;dashed=0;verticalLabelPosition=bottom;verticalAlign=top;align=center;html=1;fontSize=12;fontStyle=0;aspect=fixed;shape=mxgraph.aws4.resourceIcon;resIcon=mxgraph.aws4.auto_scaling2;" parent="0c3aztLqtbgiPArKMDzQ-1" vertex="1">
          <mxGeometry x="181" y="254" width="78" height="78" as="geometry" />
        </mxCell>
        <mxCell id="0c3aztLqtbgiPArKMDzQ-30" style="edgeStyle=orthogonalEdgeStyle;rounded=0;orthogonalLoop=1;jettySize=auto;html=1;" parent="0c3aztLqtbgiPArKMDzQ-1" source="0c3aztLqtbgiPArKMDzQ-17" target="0c3aztLqtbgiPArKMDzQ-19" edge="1">
          <mxGeometry relative="1" as="geometry" />
        </mxCell>
        <mxCell id="0c3aztLqtbgiPArKMDzQ-77" style="edgeStyle=orthogonalEdgeStyle;rounded=0;orthogonalLoop=1;jettySize=auto;html=1;exitX=0;exitY=0.5;exitDx=0;exitDy=0;exitPerimeter=0;entryX=0;entryY=0.5;entryDx=0;entryDy=0;" parent="0c3aztLqtbgiPArKMDzQ-1" source="0c3aztLqtbgiPArKMDzQ-17" target="0c3aztLqtbgiPArKMDzQ-1" edge="1">
          <mxGeometry relative="1" as="geometry">
            <Array as="points">
              <mxPoint x="50" y="483" />
              <mxPoint x="50" y="435" />
            </Array>
          </mxGeometry>
        </mxCell>
        <mxCell id="0c3aztLqtbgiPArKMDzQ-17" value="" style="sketch=0;points=[[0,0,0],[0.25,0,0],[0.5,0,0],[0.75,0,0],[1,0,0],[0,1,0],[0.25,1,0],[0.5,1,0],[0.75,1,0],[1,1,0],[0,0.25,0],[0,0.5,0],[0,0.75,0],[1,0.25,0],[1,0.5,0],[1,0.75,0]];outlineConnect=0;fontColor=#232F3E;fillColor=#ED7100;strokeColor=#ffffff;dashed=0;verticalLabelPosition=bottom;verticalAlign=top;align=center;html=1;fontSize=12;fontStyle=0;aspect=fixed;shape=mxgraph.aws4.resourceIcon;resIcon=mxgraph.aws4.auto_scaling2;" parent="0c3aztLqtbgiPArKMDzQ-1" vertex="1">
          <mxGeometry x="181" y="444" width="78" height="78" as="geometry" />
        </mxCell>
        <mxCell id="0c3aztLqtbgiPArKMDzQ-19" value="" style="sketch=0;points=[[0,0,0],[0.25,0,0],[0.5,0,0],[0.75,0,0],[1,0,0],[0,1,0],[0.25,1,0],[0.5,1,0],[0.75,1,0],[1,1,0],[0,0.25,0],[0,0.5,0],[0,0.75,0],[1,0.25,0],[1,0.5,0],[1,0.75,0]];outlineConnect=0;fontColor=#232F3E;fillColor=#C925D1;strokeColor=#ffffff;dashed=0;verticalLabelPosition=bottom;verticalAlign=top;align=center;html=1;fontSize=12;fontStyle=0;aspect=fixed;shape=mxgraph.aws4.resourceIcon;resIcon=mxgraph.aws4.rds;" parent="0c3aztLqtbgiPArKMDzQ-1" vertex="1">
          <mxGeometry x="180" y="654" width="78" height="78" as="geometry" />
        </mxCell>
        <mxCell id="0c3aztLqtbgiPArKMDzQ-25" style="edgeStyle=orthogonalEdgeStyle;rounded=0;orthogonalLoop=1;jettySize=auto;html=1;entryX=0.5;entryY=0;entryDx=0;entryDy=0;entryPerimeter=0;" parent="0c3aztLqtbgiPArKMDzQ-1" source="0c3aztLqtbgiPArKMDzQ-4" target="0c3aztLqtbgiPArKMDzQ-15" edge="1">
          <mxGeometry relative="1" as="geometry" />
        </mxCell>
        <mxCell id="0c3aztLqtbgiPArKMDzQ-28" style="edgeStyle=orthogonalEdgeStyle;rounded=0;orthogonalLoop=1;jettySize=auto;html=1;entryX=0.5;entryY=0;entryDx=0;entryDy=0;entryPerimeter=0;strokeColor=#FF8000;" parent="0c3aztLqtbgiPArKMDzQ-1" source="0c3aztLqtbgiPArKMDzQ-15" target="0c3aztLqtbgiPArKMDzQ-4" edge="1">
          <mxGeometry relative="1" as="geometry" />
        </mxCell>
        <mxCell id="0c3aztLqtbgiPArKMDzQ-29" style="edgeStyle=orthogonalEdgeStyle;rounded=0;orthogonalLoop=1;jettySize=auto;html=1;entryX=1;entryY=0.5;entryDx=0;entryDy=0;entryPerimeter=0;strokeColor=#FF8000;" parent="0c3aztLqtbgiPArKMDzQ-1" source="0c3aztLqtbgiPArKMDzQ-4" target="0c3aztLqtbgiPArKMDzQ-17" edge="1">
          <mxGeometry relative="1" as="geometry">
            <Array as="points">
              <mxPoint x="440" y="483" />
            </Array>
          </mxGeometry>
        </mxCell>
        <mxCell id="0c3aztLqtbgiPArKMDzQ-95" value="" style="sketch=0;points=[[0,0,0],[0.25,0,0],[0.5,0,0],[0.75,0,0],[1,0,0],[0,1,0],[0.25,1,0],[0.5,1,0],[0.75,1,0],[1,1,0],[0,0.25,0],[0,0.5,0],[0,0.75,0],[1,0.25,0],[1,0.5,0],[1,0.75,0]];outlineConnect=0;fontColor=#232F3E;fillColor=#8C4FFF;strokeColor=#ffffff;dashed=0;verticalLabelPosition=bottom;verticalAlign=top;align=center;html=1;fontSize=12;fontStyle=0;aspect=fixed;shape=mxgraph.aws4.resourceIcon;resIcon=mxgraph.aws4.route_53;" parent="0c3aztLqtbgiPArKMDzQ-1" vertex="1">
          <mxGeometry x="782" width="78" height="78" as="geometry" />
        </mxCell>
        <mxCell id="Z-mBgopIyZPXFNN8kN6b-1" value="" style="sketch=0;outlineConnect=0;fontColor=#232F3E;gradientColor=none;fillColor=#8C4FFF;strokeColor=none;dashed=0;verticalLabelPosition=bottom;verticalAlign=top;align=center;html=1;fontSize=12;fontStyle=0;aspect=fixed;pointerEvents=1;shape=mxgraph.aws4.internet_gateway;" vertex="1" parent="0c3aztLqtbgiPArKMDzQ-1">
          <mxGeometry x="870" y="228" width="78" height="78" as="geometry" />
        </mxCell>
        <mxCell id="Z-mBgopIyZPXFNN8kN6b-6" style="edgeStyle=orthogonalEdgeStyle;rounded=0;orthogonalLoop=1;jettySize=auto;html=1;" edge="1" parent="0c3aztLqtbgiPArKMDzQ-1" source="Z-mBgopIyZPXFNN8kN6b-4">
          <mxGeometry relative="1" as="geometry">
            <mxPoint x="780" y="293" as="targetPoint" />
          </mxGeometry>
        </mxCell>
        <mxCell id="Z-mBgopIyZPXFNN8kN6b-4" value="" style="sketch=0;outlineConnect=0;fontColor=#232F3E;gradientColor=none;fillColor=#8C4FFF;strokeColor=none;dashed=0;verticalLabelPosition=bottom;verticalAlign=top;align=center;html=1;fontSize=12;fontStyle=0;aspect=fixed;pointerEvents=1;shape=mxgraph.aws4.nat_gateway;" vertex="1" parent="0c3aztLqtbgiPArKMDzQ-1">
          <mxGeometry x="616" y="254" width="78" height="78" as="geometry" />
        </mxCell>
        <mxCell id="0c3aztLqtbgiPArKMDzQ-32" value="VPC" style="points=[[0,0],[0.25,0],[0.5,0],[0.75,0],[1,0],[1,0.25],[1,0.5],[1,0.75],[1,1],[0.75,1],[0.5,1],[0.25,1],[0,1],[0,0.75],[0,0.5],[0,0.25]];outlineConnect=0;gradientColor=none;html=1;whiteSpace=wrap;fontSize=12;fontStyle=0;container=1;pointerEvents=0;collapsible=0;recursiveResize=0;shape=mxgraph.aws4.group;grIcon=mxgraph.aws4.group_vpc2;strokeColor=#8C4FFF;fillColor=none;verticalAlign=top;align=left;spacingLeft=30;fontColor=#AAB7B8;dashed=0;" parent="1" vertex="1">
          <mxGeometry x="70" y="1100" width="440" height="390" as="geometry" />
        </mxCell>
        <mxCell id="0c3aztLqtbgiPArKMDzQ-50" value="Subnet" style="sketch=0;outlineConnect=0;gradientColor=none;html=1;whiteSpace=wrap;fontSize=12;fontStyle=0;shape=mxgraph.aws4.group;grIcon=mxgraph.aws4.group_subnet;strokeColor=#879196;fillColor=none;verticalAlign=top;align=left;spacingLeft=30;fontColor=#879196;dashed=0;" parent="0c3aztLqtbgiPArKMDzQ-32" vertex="1">
          <mxGeometry x="115" y="141" width="210" height="130" as="geometry" />
        </mxCell>
        <mxCell id="0c3aztLqtbgiPArKMDzQ-33" value="Availability zone" style="sketch=0;outlineConnect=0;gradientColor=none;html=1;whiteSpace=wrap;fontSize=12;fontStyle=0;shape=mxgraph.aws4.group;grIcon=mxgraph.aws4.group_availability_zone;strokeColor=#545B64;fillColor=none;verticalAlign=top;align=left;spacingLeft=30;fontColor=#545B64;dashed=1;" parent="0c3aztLqtbgiPArKMDzQ-32" vertex="1">
          <mxGeometry x="40" y="110" width="360" height="192" as="geometry" />
        </mxCell>
        <mxCell id="0c3aztLqtbgiPArKMDzQ-61" style="edgeStyle=orthogonalEdgeStyle;rounded=0;orthogonalLoop=1;jettySize=auto;html=1;entryX=1;entryY=0.5;entryDx=0;entryDy=0;strokeColor=light-dark(#000000,#CC0000);" parent="0c3aztLqtbgiPArKMDzQ-32" source="0c3aztLqtbgiPArKMDzQ-46" target="0c3aztLqtbgiPArKMDzQ-32" edge="1">
          <mxGeometry relative="1" as="geometry">
            <Array as="points">
              <mxPoint x="219" y="245" />
            </Array>
          </mxGeometry>
        </mxCell>
        <mxCell id="0c3aztLqtbgiPArKMDzQ-46" value="" style="sketch=0;points=[[0,0,0],[0.25,0,0],[0.5,0,0],[0.75,0,0],[1,0,0],[0,1,0],[0.25,1,0],[0.5,1,0],[0.75,1,0],[1,1,0],[0,0.25,0],[0,0.5,0],[0,0.75,0],[1,0.25,0],[1,0.5,0],[1,0.75,0]];outlineConnect=0;fontColor=#232F3E;fillColor=#ED7100;strokeColor=#ffffff;dashed=0;verticalLabelPosition=bottom;verticalAlign=top;align=center;html=1;fontSize=12;fontStyle=0;aspect=fixed;shape=mxgraph.aws4.resourceIcon;resIcon=mxgraph.aws4.ec2;" parent="0c3aztLqtbgiPArKMDzQ-32" vertex="1">
          <mxGeometry x="180" y="167" width="78" height="78" as="geometry" />
        </mxCell>
        <mxCell id="0c3aztLqtbgiPArKMDzQ-96" value="" style="sketch=0;points=[[0,0,0],[0.25,0,0],[0.5,0,0],[0.75,0,0],[1,0,0],[0,1,0],[0.25,1,0],[0.5,1,0],[0.75,1,0],[1,1,0],[0,0.25,0],[0,0.5,0],[0,0.75,0],[1,0.25,0],[1,0.5,0],[1,0.75,0]];outlineConnect=0;fontColor=#232F3E;fillColor=#8C4FFF;strokeColor=#ffffff;dashed=0;verticalLabelPosition=bottom;verticalAlign=top;align=center;html=1;fontSize=12;fontStyle=0;aspect=fixed;shape=mxgraph.aws4.resourceIcon;resIcon=mxgraph.aws4.route_53;" parent="0c3aztLqtbgiPArKMDzQ-32" vertex="1">
          <mxGeometry x="362" width="78" height="78" as="geometry" />
        </mxCell>
        <mxCell id="0c3aztLqtbgiPArKMDzQ-65" style="edgeStyle=orthogonalEdgeStyle;rounded=0;orthogonalLoop=1;jettySize=auto;html=1;entryX=1;entryY=0.5;entryDx=0;entryDy=0;strokeColor=light-dark(#000000,#CC0000);" parent="1" source="0c3aztLqtbgiPArKMDzQ-47" target="0c3aztLqtbgiPArKMDzQ-32" edge="1">
          <mxGeometry relative="1" as="geometry">
            <mxPoint x="530" y="1295" as="targetPoint" />
          </mxGeometry>
        </mxCell>
        <mxCell id="0c3aztLqtbgiPArKMDzQ-66" style="edgeStyle=orthogonalEdgeStyle;rounded=0;orthogonalLoop=1;jettySize=auto;html=1;exitX=1;exitY=0.5;exitDx=0;exitDy=0;exitPerimeter=0;strokeColor=light-dark(#000000,#CC0000);" parent="1" source="0c3aztLqtbgiPArKMDzQ-47" target="0c3aztLqtbgiPArKMDzQ-1" edge="1">
          <mxGeometry relative="1" as="geometry">
            <Array as="points">
              <mxPoint x="880" y="1295" />
              <mxPoint x="880" y="1295" />
            </Array>
          </mxGeometry>
        </mxCell>
        <mxCell id="0c3aztLqtbgiPArKMDzQ-47" value="" style="outlineConnect=0;dashed=0;verticalLabelPosition=bottom;verticalAlign=top;align=center;html=1;shape=mxgraph.aws3.vpc_peering;fillColor=#F58534;gradientColor=none;" parent="1" vertex="1">
          <mxGeometry x="650" y="1259" width="69" height="72" as="geometry" />
        </mxCell>
        <mxCell id="0c3aztLqtbgiPArKMDzQ-53" value="" style="sketch=0;points=[[0,0,0],[0.25,0,0],[0.5,0,0],[0.75,0,0],[1,0,0],[0,1,0],[0.25,1,0],[0.5,1,0],[0.75,1,0],[1,1,0],[0,0.25,0],[0,0.5,0],[0,0.75,0],[1,0.25,0],[1,0.5,0],[1,0.75,0]];outlineConnect=0;fontColor=#232F3E;fillColor=#8C4FFF;strokeColor=#ffffff;dashed=0;verticalLabelPosition=bottom;verticalAlign=top;align=center;html=1;fontSize=12;fontStyle=0;aspect=fixed;shape=mxgraph.aws4.resourceIcon;resIcon=mxgraph.aws4.cloudfront;" parent="1" vertex="1">
          <mxGeometry x="1291" y="880" width="78" height="78" as="geometry" />
        </mxCell>
        <mxCell id="0c3aztLqtbgiPArKMDzQ-54" style="edgeStyle=orthogonalEdgeStyle;rounded=0;orthogonalLoop=1;jettySize=auto;html=1;entryX=1;entryY=0.5;entryDx=0;entryDy=0;entryPerimeter=0;" parent="1" source="0c3aztLqtbgiPArKMDzQ-53" target="0c3aztLqtbgiPArKMDzQ-4" edge="1">
          <mxGeometry relative="1" as="geometry" />
        </mxCell>
        <mxCell id="0c3aztLqtbgiPArKMDzQ-55" value="AWS WAF" style="sketch=0;outlineConnect=0;fontColor=#232F3E;gradientColor=none;strokeColor=#ffffff;fillColor=#232F3E;dashed=0;verticalLabelPosition=middle;verticalAlign=bottom;align=center;html=1;whiteSpace=wrap;fontSize=10;fontStyle=1;spacing=3;shape=mxgraph.aws4.productIcon;prIcon=mxgraph.aws4.waf;" parent="1" vertex="1">
          <mxGeometry x="1369" y="900" width="80" height="100" as="geometry" />
        </mxCell>
        <mxCell id="0c3aztLqtbgiPArKMDzQ-56" value="" style="sketch=0;points=[[0,0,0],[0.25,0,0],[0.5,0,0],[0.75,0,0],[1,0,0],[0,1,0],[0.25,1,0],[0.5,1,0],[0.75,1,0],[1,1,0],[0,0.25,0],[0,0.5,0],[0,0.75,0],[1,0.25,0],[1,0.5,0],[1,0.75,0]];outlineConnect=0;fontColor=#232F3E;fillColor=#8C4FFF;strokeColor=#ffffff;dashed=0;verticalLabelPosition=bottom;verticalAlign=top;align=center;html=1;fontSize=12;fontStyle=0;aspect=fixed;shape=mxgraph.aws4.resourceIcon;resIcon=mxgraph.aws4.route_53;" parent="1" vertex="1">
          <mxGeometry x="1290" y="660" width="78" height="78" as="geometry" />
        </mxCell>
        <mxCell id="0c3aztLqtbgiPArKMDzQ-57" style="edgeStyle=orthogonalEdgeStyle;rounded=0;orthogonalLoop=1;jettySize=auto;html=1;entryX=0.5;entryY=0;entryDx=0;entryDy=0;entryPerimeter=0;" parent="1" source="0c3aztLqtbgiPArKMDzQ-56" target="0c3aztLqtbgiPArKMDzQ-53" edge="1">
          <mxGeometry relative="1" as="geometry" />
        </mxCell>
        <mxCell id="0c3aztLqtbgiPArKMDzQ-64" style="edgeStyle=orthogonalEdgeStyle;rounded=0;orthogonalLoop=1;jettySize=auto;html=1;exitX=0;exitY=0.5;exitDx=0;exitDy=0;exitPerimeter=0;entryX=0.5;entryY=0;entryDx=0;entryDy=0;entryPerimeter=0;strokeColor=light-dark(#000000,#CC0000);" parent="1" source="0c3aztLqtbgiPArKMDzQ-53" target="0c3aztLqtbgiPArKMDzQ-46" edge="1">
          <mxGeometry relative="1" as="geometry" />
        </mxCell>
        <mxCell id="0c3aztLqtbgiPArKMDzQ-68" value="VPC" style="points=[[0,0],[0.25,0],[0.5,0],[0.75,0],[1,0],[1,0.25],[1,0.5],[1,0.75],[1,1],[0.75,1],[0.5,1],[0.25,1],[0,1],[0,0.75],[0,0.5],[0,0.25]];outlineConnect=0;gradientColor=none;html=1;whiteSpace=wrap;fontSize=12;fontStyle=0;container=1;pointerEvents=0;collapsible=0;recursiveResize=0;shape=mxgraph.aws4.group;grIcon=mxgraph.aws4.group_vpc2;strokeColor=#8C4FFF;fillColor=none;verticalAlign=top;align=left;spacingLeft=30;fontColor=#AAB7B8;dashed=0;" parent="1" vertex="1">
          <mxGeometry x="80" y="1580" width="440" height="390" as="geometry" />
        </mxCell>
        <mxCell id="0c3aztLqtbgiPArKMDzQ-69" value="Subnet" style="sketch=0;outlineConnect=0;gradientColor=none;html=1;whiteSpace=wrap;fontSize=12;fontStyle=0;shape=mxgraph.aws4.group;grIcon=mxgraph.aws4.group_subnet;strokeColor=#879196;fillColor=none;verticalAlign=top;align=left;spacingLeft=30;fontColor=#879196;dashed=0;" parent="0c3aztLqtbgiPArKMDzQ-68" vertex="1">
          <mxGeometry x="115" y="141" width="210" height="130" as="geometry" />
        </mxCell>
        <mxCell id="0c3aztLqtbgiPArKMDzQ-70" value="Availability zone" style="sketch=0;outlineConnect=0;gradientColor=none;html=1;whiteSpace=wrap;fontSize=12;fontStyle=0;shape=mxgraph.aws4.group;grIcon=mxgraph.aws4.group_availability_zone;strokeColor=#545B64;fillColor=none;verticalAlign=top;align=left;spacingLeft=30;fontColor=#545B64;dashed=1;" parent="0c3aztLqtbgiPArKMDzQ-68" vertex="1">
          <mxGeometry x="40" y="110" width="360" height="192" as="geometry" />
        </mxCell>
        <mxCell id="0c3aztLqtbgiPArKMDzQ-79" style="edgeStyle=orthogonalEdgeStyle;rounded=0;orthogonalLoop=1;jettySize=auto;html=1;" parent="0c3aztLqtbgiPArKMDzQ-68" source="0c3aztLqtbgiPArKMDzQ-72" edge="1">
          <mxGeometry relative="1" as="geometry">
            <mxPoint x="440" y="200" as="targetPoint" />
            <Array as="points">
              <mxPoint x="310" y="200" />
              <mxPoint x="310" y="200" />
            </Array>
          </mxGeometry>
        </mxCell>
        <mxCell id="0c3aztLqtbgiPArKMDzQ-72" value="" style="sketch=0;points=[[0,0,0],[0.25,0,0],[0.5,0,0],[0.75,0,0],[1,0,0],[0,1,0],[0.25,1,0],[0.5,1,0],[0.75,1,0],[1,1,0],[0,0.25,0],[0,0.5,0],[0,0.75,0],[1,0.25,0],[1,0.5,0],[1,0.75,0]];outlineConnect=0;fontColor=#232F3E;fillColor=#ED7100;strokeColor=#ffffff;dashed=0;verticalLabelPosition=bottom;verticalAlign=top;align=center;html=1;fontSize=12;fontStyle=0;aspect=fixed;shape=mxgraph.aws4.resourceIcon;resIcon=mxgraph.aws4.ec2;" parent="0c3aztLqtbgiPArKMDzQ-68" vertex="1">
          <mxGeometry x="180" y="167" width="78" height="78" as="geometry" />
        </mxCell>
        <mxCell id="0c3aztLqtbgiPArKMDzQ-97" value="" style="sketch=0;points=[[0,0,0],[0.25,0,0],[0.5,0,0],[0.75,0,0],[1,0,0],[0,1,0],[0.25,1,0],[0.5,1,0],[0.75,1,0],[1,1,0],[0,0.25,0],[0,0.5,0],[0,0.75,0],[1,0.25,0],[1,0.5,0],[1,0.75,0]];outlineConnect=0;fontColor=#232F3E;fillColor=#8C4FFF;strokeColor=#ffffff;dashed=0;verticalLabelPosition=bottom;verticalAlign=top;align=center;html=1;fontSize=12;fontStyle=0;aspect=fixed;shape=mxgraph.aws4.resourceIcon;resIcon=mxgraph.aws4.route_53;" parent="0c3aztLqtbgiPArKMDzQ-68" vertex="1">
          <mxGeometry x="362" width="78" height="78" as="geometry" />
        </mxCell>
        <mxCell id="0c3aztLqtbgiPArKMDzQ-75" style="edgeStyle=orthogonalEdgeStyle;rounded=0;orthogonalLoop=1;jettySize=auto;html=1;entryX=1;entryY=0.5;entryDx=0;entryDy=0;" parent="1" source="0c3aztLqtbgiPArKMDzQ-73" target="0c3aztLqtbgiPArKMDzQ-68" edge="1">
          <mxGeometry relative="1" as="geometry" />
        </mxCell>
        <mxCell id="0c3aztLqtbgiPArKMDzQ-91" style="edgeStyle=orthogonalEdgeStyle;rounded=0;orthogonalLoop=1;jettySize=auto;html=1;entryX=0.5;entryY=0;entryDx=0;entryDy=0;entryPerimeter=0;" parent="1" source="0c3aztLqtbgiPArKMDzQ-73" target="0c3aztLqtbgiPArKMDzQ-93" edge="1">
          <mxGeometry relative="1" as="geometry">
            <mxPoint x="720" y="2480" as="targetPoint" />
            <Array as="points">
              <mxPoint x="689" y="2120" />
              <mxPoint x="1329" y="2120" />
            </Array>
          </mxGeometry>
        </mxCell>
        <mxCell id="0c3aztLqtbgiPArKMDzQ-73" value="" style="sketch=0;points=[[0,0,0],[0.25,0,0],[0.5,0,0],[0.75,0,0],[1,0,0],[0,1,0],[0.25,1,0],[0.5,1,0],[0.75,1,0],[1,1,0],[0,0.25,0],[0,0.5,0],[0,0.75,0],[1,0.25,0],[1,0.5,0],[1,0.75,0]];outlineConnect=0;fontColor=#232F3E;fillColor=#8C4FFF;strokeColor=#ffffff;dashed=0;verticalLabelPosition=bottom;verticalAlign=top;align=center;html=1;fontSize=12;fontStyle=0;aspect=fixed;shape=mxgraph.aws4.resourceIcon;resIcon=mxgraph.aws4.transit_gateway;" parent="1" vertex="1">
          <mxGeometry x="650" y="1736" width="78" height="78" as="geometry" />
        </mxCell>
        <mxCell id="0c3aztLqtbgiPArKMDzQ-74" style="edgeStyle=orthogonalEdgeStyle;rounded=0;orthogonalLoop=1;jettySize=auto;html=1;" parent="1" source="0c3aztLqtbgiPArKMDzQ-73" target="0c3aztLqtbgiPArKMDzQ-1" edge="1">
          <mxGeometry relative="1" as="geometry">
            <Array as="points">
              <mxPoint x="810" y="1775" />
              <mxPoint x="810" y="1535" />
            </Array>
          </mxGeometry>
        </mxCell>
        <mxCell id="0c3aztLqtbgiPArKMDzQ-83" style="edgeStyle=orthogonalEdgeStyle;rounded=0;orthogonalLoop=1;jettySize=auto;html=1;entryX=0.5;entryY=0;entryDx=0;entryDy=0;entryPerimeter=0;" parent="1" source="0c3aztLqtbgiPArKMDzQ-80" target="0c3aztLqtbgiPArKMDzQ-82" edge="1">
          <mxGeometry relative="1" as="geometry">
            <mxPoint x="2259" y="1180" as="targetPoint" />
          </mxGeometry>
        </mxCell>
        <mxCell id="0c3aztLqtbgiPArKMDzQ-80" value="" style="sketch=0;points=[[0,0,0],[0.25,0,0],[0.5,0,0],[0.75,0,0],[1,0,0],[0,1,0],[0.25,1,0],[0.5,1,0],[0.75,1,0],[1,1,0],[0,0.25,0],[0,0.5,0],[0,0.75,0],[1,0.25,0],[1,0.5,0],[1,0.75,0]];outlineConnect=0;fontColor=#232F3E;fillColor=#E7157B;strokeColor=#ffffff;dashed=0;verticalLabelPosition=bottom;verticalAlign=top;align=center;html=1;fontSize=12;fontStyle=0;aspect=fixed;shape=mxgraph.aws4.resourceIcon;resIcon=mxgraph.aws4.api_gateway;" parent="1" vertex="1">
          <mxGeometry x="1990" y="870" width="78" height="78" as="geometry" />
        </mxCell>
        <mxCell id="0c3aztLqtbgiPArKMDzQ-82" value="" style="sketch=0;points=[[0,0,0],[0.25,0,0],[0.5,0,0],[0.75,0,0],[1,0,0],[0,1,0],[0.25,1,0],[0.5,1,0],[0.75,1,0],[1,1,0],[0,0.25,0],[0,0.5,0],[0,0.75,0],[1,0.25,0],[1,0.5,0],[1,0.75,0]];outlineConnect=0;fontColor=#232F3E;fillColor=#ED7100;strokeColor=#ffffff;dashed=0;verticalLabelPosition=bottom;verticalAlign=top;align=center;html=1;fontSize=12;fontStyle=0;aspect=fixed;shape=mxgraph.aws4.resourceIcon;resIcon=mxgraph.aws4.lambda;" parent="1" vertex="1">
          <mxGeometry x="1990" y="1210" width="78" height="78" as="geometry" />
        </mxCell>
        <mxCell id="0c3aztLqtbgiPArKMDzQ-84" style="edgeStyle=orthogonalEdgeStyle;rounded=0;orthogonalLoop=1;jettySize=auto;html=1;exitX=1;exitY=0.5;exitDx=0;exitDy=0;exitPerimeter=0;entryX=0.5;entryY=0;entryDx=0;entryDy=0;entryPerimeter=0;" parent="1" source="0c3aztLqtbgiPArKMDzQ-56" target="0c3aztLqtbgiPArKMDzQ-80" edge="1">
          <mxGeometry relative="1" as="geometry" />
        </mxCell>
        <mxCell id="0c3aztLqtbgiPArKMDzQ-85" value="AWS WAF" style="sketch=0;outlineConnect=0;fontColor=#232F3E;gradientColor=none;strokeColor=#ffffff;fillColor=#232F3E;dashed=0;verticalLabelPosition=middle;verticalAlign=bottom;align=center;html=1;whiteSpace=wrap;fontSize=10;fontStyle=1;spacing=3;shape=mxgraph.aws4.productIcon;prIcon=mxgraph.aws4.waf;" parent="1" vertex="1">
          <mxGeometry x="2068" y="890" width="80" height="100" as="geometry" />
        </mxCell>
        <mxCell id="0c3aztLqtbgiPArKMDzQ-86" value="" style="sketch=0;points=[[0,0,0],[0.25,0,0],[0.5,0,0],[0.75,0,0],[1,0,0],[0,1,0],[0.25,1,0],[0.5,1,0],[0.75,1,0],[1,1,0],[0,0.25,0],[0,0.5,0],[0,0.75,0],[1,0.25,0],[1,0.5,0],[1,0.75,0]];outlineConnect=0;fontColor=#232F3E;fillColor=#ED7100;strokeColor=#ffffff;dashed=0;verticalLabelPosition=bottom;verticalAlign=top;align=center;html=1;fontSize=12;fontStyle=0;aspect=fixed;shape=mxgraph.aws4.resourceIcon;resIcon=mxgraph.aws4.eks;" parent="1" vertex="1">
          <mxGeometry x="1076" y="2446" width="78" height="78" as="geometry" />
        </mxCell>
        <mxCell id="0c3aztLqtbgiPArKMDzQ-88" value="Availability zone" style="sketch=0;outlineConnect=0;gradientColor=none;html=1;whiteSpace=wrap;fontSize=12;fontStyle=0;shape=mxgraph.aws4.group;grIcon=mxgraph.aws4.group_availability_zone;strokeColor=#545B64;fillColor=none;verticalAlign=top;align=left;spacingLeft=30;fontColor=#545B64;dashed=1;" parent="1" vertex="1">
          <mxGeometry x="975" y="2390" width="280" height="410" as="geometry" />
        </mxCell>
        <mxCell id="0c3aztLqtbgiPArKMDzQ-89" value="Subnet" style="sketch=0;outlineConnect=0;gradientColor=none;html=1;whiteSpace=wrap;fontSize=12;fontStyle=0;shape=mxgraph.aws4.group;grIcon=mxgraph.aws4.group_subnet;strokeColor=#879196;fillColor=none;verticalAlign=top;align=left;spacingLeft=30;fontColor=#879196;dashed=0;" parent="1" vertex="1">
          <mxGeometry x="990" y="2420" width="685" height="130" as="geometry" />
        </mxCell>
        <mxCell id="0c3aztLqtbgiPArKMDzQ-90" value="Availability zone" style="sketch=0;outlineConnect=0;gradientColor=none;html=1;whiteSpace=wrap;fontSize=12;fontStyle=0;shape=mxgraph.aws4.group;grIcon=mxgraph.aws4.group_availability_zone;strokeColor=#545B64;fillColor=none;verticalAlign=top;align=left;spacingLeft=30;fontColor=#545B64;dashed=1;" parent="1" vertex="1">
          <mxGeometry x="1415" y="2390" width="280" height="420" as="geometry" />
        </mxCell>
        <mxCell id="0c3aztLqtbgiPArKMDzQ-93" value="" style="outlineConnect=0;dashed=0;verticalLabelPosition=bottom;verticalAlign=top;align=center;html=1;shape=mxgraph.aws3.application_load_balancer;fillColor=#F58534;gradientColor=none;" parent="1" vertex="1">
          <mxGeometry x="1294.5" y="2280" width="69" height="72" as="geometry" />
        </mxCell>
        <mxCell id="0c3aztLqtbgiPArKMDzQ-94" style="edgeStyle=orthogonalEdgeStyle;rounded=0;orthogonalLoop=1;jettySize=auto;html=1;exitX=0;exitY=0.5;exitDx=0;exitDy=0;exitPerimeter=0;entryX=0.19;entryY=0.231;entryDx=0;entryDy=0;entryPerimeter=0;" parent="1" source="0c3aztLqtbgiPArKMDzQ-93" target="0c3aztLqtbgiPArKMDzQ-89" edge="1">
          <mxGeometry relative="1" as="geometry">
            <Array as="points">
              <mxPoint x="1120" y="2316" />
            </Array>
          </mxGeometry>
        </mxCell>
        <mxCell id="0c3aztLqtbgiPArKMDzQ-98" value="VPC" style="points=[[0,0],[0.25,0],[0.5,0],[0.75,0],[1,0],[1,0.25],[1,0.5],[1,0.75],[1,1],[0.75,1],[0.5,1],[0.25,1],[0,1],[0,0.75],[0,0.5],[0,0.25]];outlineConnect=0;gradientColor=none;html=1;whiteSpace=wrap;fontSize=12;fontStyle=0;container=1;pointerEvents=0;collapsible=0;recursiveResize=0;shape=mxgraph.aws4.group;grIcon=mxgraph.aws4.group_vpc2;strokeColor=#8C4FFF;fillColor=none;verticalAlign=top;align=left;spacingLeft=30;fontColor=#AAB7B8;dashed=0;" parent="1" vertex="1">
          <mxGeometry x="880" y="2190" width="880" height="710" as="geometry" />
        </mxCell>
        <mxCell id="0c3aztLqtbgiPArKMDzQ-99" value="" style="sketch=0;points=[[0,0,0],[0.25,0,0],[0.5,0,0],[0.75,0,0],[1,0,0],[0,1,0],[0.25,1,0],[0.5,1,0],[0.75,1,0],[1,1,0],[0,0.25,0],[0,0.5,0],[0,0.75,0],[1,0.25,0],[1,0.5,0],[1,0.75,0]];outlineConnect=0;fontColor=#232F3E;fillColor=#7AA116;strokeColor=#ffffff;dashed=0;verticalLabelPosition=bottom;verticalAlign=top;align=center;html=1;fontSize=12;fontStyle=0;aspect=fixed;shape=mxgraph.aws4.resourceIcon;resIcon=mxgraph.aws4.s3;" parent="1" vertex="1">
          <mxGeometry x="1990" y="1510" width="78" height="78" as="geometry" />
        </mxCell>
        <mxCell id="0c3aztLqtbgiPArKMDzQ-100" style="edgeStyle=orthogonalEdgeStyle;rounded=0;orthogonalLoop=1;jettySize=auto;html=1;entryX=0.5;entryY=0;entryDx=0;entryDy=0;entryPerimeter=0;" parent="1" target="0c3aztLqtbgiPArKMDzQ-99" edge="1">
          <mxGeometry relative="1" as="geometry">
            <mxPoint x="2029" y="1288" as="sourcePoint" />
          </mxGeometry>
        </mxCell>
        <mxCell id="0c3aztLqtbgiPArKMDzQ-101" style="edgeStyle=orthogonalEdgeStyle;rounded=0;orthogonalLoop=1;jettySize=auto;html=1;exitX=0.75;exitY=0;exitDx=0;exitDy=0;exitPerimeter=0;entryX=0;entryY=0.5;entryDx=0;entryDy=0;entryPerimeter=0;" parent="1" target="0c3aztLqtbgiPArKMDzQ-99" edge="1">
          <mxGeometry relative="1" as="geometry">
            <mxPoint x="1350" y="880" as="sourcePoint" />
            <Array as="points">
              <mxPoint x="1350" y="860" />
              <mxPoint x="1860" y="860" />
              <mxPoint x="1860" y="1549" />
            </Array>
          </mxGeometry>
        </mxCell>
        <mxCell id="0c3aztLqtbgiPArKMDzQ-102" value="" style="rounded=1;whiteSpace=wrap;html=1;strokeWidth=2;fillWeight=4;hachureGap=8;hachureAngle=45;fillColor=#1ba1e2;sketch=1;" parent="1" vertex="1">
          <mxGeometry x="120" y="60" width="2150" height="90" as="geometry" />
        </mxCell>
        <mxCell id="0c3aztLqtbgiPArKMDzQ-103" value="" style="image;aspect=fixed;perimeter=ellipsePerimeter;html=1;align=center;shadow=0;dashed=0;spacingTop=3;image=img/lib/active_directory/internet_cloud.svg;" parent="1" vertex="1">
          <mxGeometry x="1060" y="460" width="130" height="81.9" as="geometry" />
        </mxCell>
        <mxCell id="0c3aztLqtbgiPArKMDzQ-104" style="edgeStyle=orthogonalEdgeStyle;rounded=0;orthogonalLoop=1;jettySize=auto;html=1;entryX=0.5;entryY=0;entryDx=0;entryDy=0;entryPerimeter=0;" parent="1" source="0c3aztLqtbgiPArKMDzQ-103" target="0c3aztLqtbgiPArKMDzQ-56" edge="1">
          <mxGeometry relative="1" as="geometry" />
        </mxCell>
        <object label="AWS ARCHITECTURE PLAY" id="0c3aztLqtbgiPArKMDzQ-105">
          <mxCell style="text;strokeColor=none;fillColor=none;html=1;fontSize=40;fontStyle=0;verticalAlign=middle;align=center;strokeWidth=1;" parent="1" vertex="1">
            <mxGeometry x="210" y="60" width="1980" height="90" as="geometry" />
          </mxCell>
        </object>
      </root>
    </mxGraphModel>
  </diagram>
</mxfile>
